<?xml version="1.0" encoding="iso-8859-1"?>
<!-- Uploaded to: SVG Repo, www.svgrepo.com, Generator: SVG Repo Mixer Tools -->
<svg fill="#2ca9bc" height="800px" width="800px" version="1.1" id="Capa_1" xmlns="http://www.w3.org/2000/svg" xmlns:xlink="http://www.w3.org/1999/xlink" 
	 viewBox="0 0 490 490" xml:space="preserve">
<g>
	<polygon points="190.858,359.993 153.25,359.993 153.25,338.684 188.585,338.684 188.585,328.127 153.25,328.127 153.25,308.702 
		190.529,308.702 190.529,296.665 138.954,296.665 138.954,372.031 190.858,372.031 	"/>
	<path d="M215.815,347.686h16.838l3.32-0.06c10.303,0,17.152-1.66,20.531-4.965c3.395-3.32,5.084-10.019,5.084-20.113
		c0-10.154-1.779-17.017-5.323-20.561c-3.559-3.559-10.438-5.323-20.636-5.323h-3.753h-30.371v75.366h14.311V347.686z
		 M215.815,308.702h17.72c6.116,0,9.899,0.763,11.35,2.288s2.183,5.473,2.183,11.843c0,5.563-0.882,9.077-2.632,10.572
		c-1.75,1.495-5.862,2.243-12.337,2.243h-16.285V308.702z"/>
	<path d="M299.421,361.204c-8.21,0-13.234-0.583-15.088-1.764c-1.839-1.181-2.752-4.396-2.752-9.66l-0.06-1.6h-13.907l0.045,2.751
		c0,8.763,1.944,14.58,5.832,17.451c3.888,2.871,11.754,4.307,23.597,4.307c13.174,0,21.698-1.466,25.571-4.381
		c3.858-2.931,5.802-9.406,5.802-19.41c0-8.135-1.66-13.488-4.95-16.075c-3.29-2.572-10.557-4.172-21.772-4.8
		c-9.496-0.508-15.103-1.256-16.793-2.213c-1.69-0.957-2.542-3.813-2.542-8.553c0-4.008,1.047-6.639,3.125-7.895
		c2.079-1.256,6.505-1.884,13.279-1.884c5.742,0,9.391,0.553,10.931,1.63c1.54,1.092,2.482,3.753,2.811,7.985
		c0,0.329,0.045,0.837,0.12,1.54h13.967v-2.871c0-7.806-1.974-13.04-5.907-15.731c-3.948-2.692-11.574-4.038-22.924-4.038
		c-11.963,0-19.933,1.466-23.926,4.396c-3.993,2.916-5.996,8.793-5.996,17.585c0,8.613,1.66,14.221,4.965,16.838
		c3.32,2.617,10.946,4.277,22.864,4.965l7.896,0.508c4.456,0.254,7.357,0.987,8.703,2.183c1.331,1.196,2.004,3.604,2.004,7.253
		c0,4.935-0.882,8.09-2.647,9.451C309.904,360.532,305.806,361.204,299.421,361.204z"/>
	<path d="M77.788,0v265.111H42.189v139.615h0.001l35.59,35.591L77.788,490h370.023V102.422L345.388,0H77.788z M395.793,389.413
		H57.501v-108.99h338.292V389.413z M353.022,36.962l57.816,57.804h-57.816V36.962z"/>
</g>
</svg>