<?xml version="1.0" encoding="UTF-8"?>
<svg xmlns="http://www.w3.org/2000/svg" width="48" height="48" viewBox="0 0 24 24" fill="none" stroke="currentColor" stroke-width="2" stroke-linecap="round" stroke-linejoin="round">
<svg xmlns="http://www.w3.org/2000/svg" width="48" height="48" viewBox="0 0 24 24" fill="none" stroke="currentColor" stroke-width="2" stroke-linecap="round" stroke-linejoin="round" class="feather feather-address-book"><path d="M20 22H4a2 2 0 0 1-2-2V4a2 2 0 0 1 2-2h16a2 2 0 0 1 2 2v16a2 2 0 0 1-2 2zM12 10a3 3 0 1 0 0-6 3 3 0 0 0 0 6zm-7 8h14v-1a7 7 0 0 0-14 0v1z"/></svg>
<svg xmlns="http://www.w3.org/2000/svg" width="48" height="48" viewBox="0 0 24 24" fill="none" stroke="currentColor" stroke-width="2" stroke-linecap="round" stroke-linejoin="round" class="feather feather-airplay"><path d="M5 17H4a2 2 0 0 1-2-2V5a2 2 0 0 1 2-2h16a2 2 0 0 1 2 2v10a2 2 0 0 1-2 2h-1"/><path d="M12 15l5 6H7l5-6z"/></svg>
<svg xmlns="http://www.w3.org/2000/svg" width="48" height="48" viewBox="0 0 24 24" fill="none" stroke="currentColor" stroke-width="2" stroke-linecap="round" stroke-linejoin="round" class="feather feather-alarm-check"><path d="M12 21a8 8 0 1 0 0-16 8 8 0 0 0 0 16z"/><path d="M5 3L2 6"/><path d="M22 6l-3-3"/><path d="M6.38 18.7l-3.2-3.2"/><path d="M17.62 5.3l3.2 3.2"/><path d="M9 13l2 2 4-4"/></svg>
<svg xmlns="http://www.w3.org/2000/svg" width="48" height="48" viewBox="0 0 24 24" fill="none" stroke="currentColor" stroke-width="2" stroke-linecap="round" stroke-linejoin="round" class="feather feather-alarm-clock-off"><path d="M12 21a8 8 0 1 0 0-16 8 8 0 0 0 0 16z"/><path d="M5 3L2 6"/><path d="M22 6l-3-3"/><path d="M6.38 18.7l-3.2-3.2"/><path d="M17.62 5.3l3.2 3.2"/><path d="M12 12l-4-4"/><path d="M12 8v4h4"/></svg>
<svg xmlns="http://www.w3.org/2000/svg" width="48" height="48" viewBox="0 0 24 24" fill="none" stroke="currentColor" stroke-width="2" stroke-linecap="round" stroke-linejoin="round" class="feather feather-alarm-clock"><path d="M12 21a8 8 0 1 0 0-16 8 8 0 0 0 0 16z"/><path d="M5 3L2 6"/><path d="M22 6l-3-3"/><path d="M6.38 18.7l-3.2-3.2"/><path d="M17.62 5.3l3.2 3.2"/><path d="M12 8v4l3 3"/></svg>
<svg xmlns="http://www.w3.org/2000/svg" width="48" height="48" viewBox="0 0 24 24" fill="none" stroke="currentColor" stroke-width="2" stroke-linecap="round" stroke-linejoin="round" class="feather feather-alarm-minus"><path d="M12 21a8 8 0 1 0 0-16 8 8 0 0 0 0 16z"/><path d="M5 3L2 6"/><path d="M22 6l-3-3"/><path d="M6.38 18.7l-3.2-3.2"/><path d="M17.62 5.3l3.2 3.2"/><path d="M9 13h6"/></svg>
<svg xmlns="http://www.w3.org/2000/svg" width="48" height="48" viewBox="0 0 24 24" fill="none" stroke="currentColor" stroke-width="2" stroke-linecap="round" stroke-linejoin="round" class="feather feather-alarm-plus"><path d="M12 21a8 8 0 1 0 0-16 8 8 0 0 0 0 16z"/><path d="M5 3L2 6"/><path d="M22 6l-3-3"/><path d="M6.38 18.7l-3.2-3.2"/><path d="M17.62 5.3l3.2 3.2"/><path d="M13 9v6"/><path d="M10 12h6"/></svg>
<svg xmlns="http://www.w3.org/2000/svg" width="48" height="48" viewBox="0 0 24 24" fill="none" stroke="currentColor" stroke-width="2" stroke-linecap="round" stroke-linejoin="round" class="feather feather-album"><rect x="3" y="3" width="18" height="18" rx="2"/><path d="M8 8h8v8H8z"/><path d="M12 12a2 2 0 1 0 0-4 2 2 0 0 0 0 4z"/></svg>
<svg xmlns="http://www.w3.org/2000/svg" width="48" height="48" viewBox="0 0 24 24" fill="none" stroke="currentColor" stroke-width="2" stroke-linecap="round" stroke-linejoin="round" class="feather feather-alert-circle"><circle cx="12" cy="12" r="10"/><path d="M12 8v4"/><path d="M12 16h.01"/></svg>
<svg xmlns="http://www.w3.org/2000/svg" width="48" height="48" viewBox="0 0 24 24" fill="none" stroke="currentColor" stroke-width="2" stroke-linecap="round" stroke-linejoin="round" class="feather feather-alert-octagon"><path d="M7.86 2h8.28L22 7.86v8.28L16.14 22H7.86L2 16.14V7.86L7.86 2z"/><path d="M12 8v4"/><path d="M12 16h.01"/></svg>
<svg xmlns="http://www.w3.org/2000/svg" width="48" height="48" viewBox="0 0 24 24" fill="none" stroke="currentColor" stroke-width="2" stroke-linecap="round" stroke-linejoin="round" class="feather feather-alert-triangle"><path d="M10.29 3.86L1.82 18a2 2 0 0 0 1.71 3h16.94a2 2 0 0 0 1.71-3L13.71 3.86a2 2 0 0 0-3.42 0z"/><path d="M12 9v4"/><path d="M12 17h.01"/></svg>
<svg xmlns="http://www.w3.org/2000/svg" width="48" height="48" viewBox="0 0 24 24" fill="none" stroke="currentColor" stroke-width="2" stroke-linecap="round" stroke-linejoin="round" class="feather feather-align-center"><path d="M18 10H6"/><path d="M21 6H3"/><path d="M21 14H3"/><path d="M18 18H6"/></svg>
<svg xmlns="http://www.w3.org/2000/svg" width="48" height="48" viewBox="0 0 24 24" fill="none" stroke="currentColor" stroke-width="2" stroke-linecap="round" stroke-linejoin="round" class="feather feather-align-justify"><path d="M21 10H3"/><path d="M21 6H3"/><path d="M21 14H3"/><path d="M21 18H3"/></svg>
<svg xmlns="http://www.w3.org/2000/svg" width="48" height="48" viewBox="0 0 24 24" fill="none" stroke="currentColor" stroke-width="2" stroke-linecap="round" stroke-linejoin="round" class="feather feather-align-left"><path d="M17 10H3"/><path d="M21 6H3"/><path d="M21 14H3"/><path d="M17 18H3"/></svg>
<svg xmlns="http://www.w3.org/2000/svg" width="48" height="48" viewBox="0 0 24 24" fill="none" stroke="currentColor" stroke-width="2" stroke-linecap="round" stroke-linejoin="round" class="feather feather-align-right"><path d="M21 10H7"/><path d="M21 6H3"/><path d="M21 14H3"/><path d="M21 18H7"/></svg>
<svg xmlns="http://www.w3.org/2000/svg" width="48" height="48" viewBox="0 0 24 24" fill="none" stroke="currentColor" stroke-width="2" stroke-linecap="round" stroke-linejoin="round" class="feather feather-anchor"><circle cx="12" cy="5" r="3"/><path d="M12 22V8"/><path d="M5 12H2a10 10 0 0 0 20 0h-3"/></svg>
<svg xmlns="http://www.w3.org/2000/svg" width="48" height="48" viewBox="0 0 24 24" fill="none" stroke="currentColor" stroke-width="2" stroke-linecap="round" stroke-linejoin="round" class="feather feather-aperture"><circle cx="12" cy="12" r="10"/><path d="M14.31 8l5.74 9.94"/><path d="M9.69 8h11.48"/><path d="M7.38 12l5.74-9.94"/><path d="M9.69 16L3.95 6.06"/><path d="M14.31 16H2.83"/><path d="M16.62 12l-5.74 9.94"/></svg>
<svg xmlns="http://www.w3.org/2000/svg" width="48" height="48" viewBox="0 0 24 24" fill="none" stroke="currentColor" stroke-width="2" stroke-linecap="round" stroke-linejoin="round" class="feather feather-archive"><path d="M21 8v13H3V8"/><path d="M1 3h22v5H1z"/><path d="M10 12h4"/></svg>
<svg xmlns="http://www.w3.org/2000/svg" width="48" height="48" viewBox="0 0 24 24" fill="none" stroke="currentColor" stroke-width="2" stroke-linecap="round" stroke-linejoin="round" class="feather feather-arrow-back"><path d="M12 5H4.22a2 2 0 0 0-1.79 1.11L.01 12l2.42 5.89A2 2 0 0 0 4.22 19H12"/><path d="M12 5l7 7-7 7"/></svg>
<svg xmlns="http://www.w3.org/2000/svg" width="48" height="48" viewBox="0 0 24 24" fill="none" stroke="currentColor" stroke-width="2" stroke-linecap="round" stroke-linejoin="round" class="feather feather-arrow-down-circle"><circle cx="12" cy="12" r="10"/><path d="M12 8v8"/><path d="M8 12l4 4 4-4"/></svg>
<svg xmlns="http://www.w3.org/2000/svg" width="48" height="48" viewBox="0 0 24 24" fill="none" stroke="currentColor" stroke-width="2" stroke-linecap="round" stroke-linejoin="round" class="feather feather-arrow-down-left"><path d="M17 7L7 17"/><path d="M17 17H7V7"/></svg>
<svg xmlns="http://www.w3.org/2000/svg" width="48" height="48" viewBox="0 0 24 24" fill="none" stroke="currentColor" stroke-width="2" stroke-linecap="round" stroke-linejoin="round" class="feather feather-arrow-down-right"><path d="M7 7l10 10"/><path d="M17 7v10H7"/></svg>
<svg xmlns="http://www.w3.org/2000/svg" width="48" height="48" viewBox="0 0 24 24" fill="none" stroke="currentColor" stroke-width="2" stroke-linecap="round" stroke-linejoin="round" class="feather feather-arrow-down"><path d="M12 5v14"/><path d="M19 12l-7 7-7-7"/></svg>
<svg xmlns="http://www.w3.org/2000/svg" width="48" height="48" viewBox="0 0 24 24" fill="none" stroke="currentColor" stroke-width="2" stroke-linecap="round" stroke-linejoin="round" class="feather feather-arrow-forward"><path d="M12 5h7.78a2 2 0 0 1 1.79 1.11L24 12l-2.42 5.89A2 2 0 0 1 19.78 19H12"/><path d="M12 5l-7 7 7 7"/></svg>
<svg xmlns="http://www.w3.org/2000/svg" width="48" height="48" viewBox="0 0 24 24" fill="none" stroke="currentColor" stroke-width="2" stroke-linecap="round" stroke-linejoin="round" class="feather feather-arrow-left-circle"><circle cx="12" cy="12" r="10"/><path d="M16 12H8"/><path d="M12 16l-4-4 4-4"/></svg>
<svg xmlns="http://www.w3.org/2000/svg" width="48" height="48" viewBox="0 0 24 24" fill="none" stroke="currentColor" stroke-width="2" stroke-linecap="round" stroke-linejoin="round" class="feather feather-arrow-left"><path d="M12 19V5"/><path d="M5 12l7-7 7 7"/></svg>
<svg xmlns="http://www.w3.org/2000/svg" width="48" height="48" viewBox="0 0 24 24" fill="none" stroke="currentColor" stroke-width="2" stroke-linecap="round" stroke-linejoin="round" class="feather feather-arrow-right-circle"><circle cx="12" cy="12" r="10"/><path d="M8 12h8"/><path d="M12 8l4 4-4 4"/></svg>
<svg xmlns="http://www.w3.org/2000/svg" width="48" height="48" viewBox="0 0 24 24" fill="none" stroke="currentColor" stroke-width="2" stroke-linecap="round" stroke-linejoin="round" class="feather feather-arrow-right"><path d="M12 5v14"/><path d="M19 12l-7 7-7-7"/></svg>
<svg xmlns="http://www.w3.org/2000/svg" width="48" height="48" viewBox="0 0 24 24" fill="none" stroke="currentColor" stroke-width="2" stroke-linecap="round" stroke-linejoin="round" class="feather feather-arrow-up-circle"><circle cx="12" cy="12" r="10"/><path d="M12 16V8"/><path d="M8 12l4-4 4 4"/></svg>
<svg xmlns="http://www.w3.org/2000/svg" width="48" height="48" viewBox="0 0 24 24" fill="none" stroke="currentColor" stroke-width="2" stroke-linecap="round" stroke-linejoin="round" class="feather feather-arrow-up-left"><path d="M17 17L7 7"/><path d="M7 17V7h10"/></svg>
<svg xmlns="http://www.w3.org/2000/svg" width="48" height="48" viewBox="0 0 24 24" fill="none" stroke="currentColor" stroke-width="2" stroke-linecap="round" stroke-linejoin="round" class="feather feather-arrow-up-right"><path d="M7 17L17 7"/><path d="M7 7h10v10"/></svg>
</svg>