<?xml version="1.0" encoding="iso-8859-1"?>
<!-- Uploaded to: SVG Repo, www.svgrepo.com, Generator: SVG Repo Mixer Tools -->
<svg fill="#2ca9bc" version="1.1" id="Capa_1" xmlns="http://www.w3.org/2000/svg" xmlns:xlink="http://www.w3.org/1999/xlink" 
	 viewBox="0 0 490 490" xml:space="preserve">
<g>
	<polygon points="125.7,309.475 147.458,309.475 147.458,372.041 161.753,372.041 161.753,309.475 184.288,309.475 184.288,296.675 
		125.7,296.675 	"/>
	<rect x="191.511" y="296.675" width="14.311" height="75.366"/>
	<polygon points="219.175,372.041 233.486,372.041 233.486,341.057 267.281,341.057 267.281,329.019 233.486,329.019 
		233.486,308.712 269.105,308.712 269.105,296.675 219.175,296.675 	"/>
	<polygon points="277.823,372.041 292.119,372.041 292.119,341.057 325.914,341.057 325.914,329.019 292.119,329.019 
		292.119,308.712 327.738,308.712 327.738,296.675 277.823,296.675 	"/>
	<path d="M77.788,0v265.111H42.189v139.615h0.001l35.59,35.591L77.788,490h370.023V102.422L345.388,0H77.788z M395.793,389.413
		H57.501v-108.99h338.292V389.413z M353.022,36.962l57.816,57.804h-57.816V36.962z"/>
</g>
</svg>