<?xml version="1.0" encoding="UTF-8"?>
<svg width="24px" height="24px" viewBox="0 0 24 24" version="1.1" xmlns="http://www.w3.org/2000/svg" xmlns:xlink="http://www.w3.org/1999/xlink">
    <title>Debug</title>
    <g id="Icon/Debug" stroke="none" stroke-width="1" fill="none" fill-rule="evenodd">
        <path d="M20,8 L17.2,8 C16.9,7.1 16.5,6.3 15.9,5.6 L17.8,3.8 L16.4,2.4 L14.2,4.6 C13.4,4.2 12.7,4 12,4 C11.3,4 10.6,4.2 9.9,4.6 L7.6,2.4 L6.2,3.8 L8.1,5.6 C7.5,6.3 7.1,7.1 6.8,8 L4,8 L4,10 L6.1,10 C6.1,10.3 6,10.7 6,11 L6,12 L4,12 L4,14 L6,14 L6,15 C6,15.3 6.1,15.7 6.1,16 L4,16 L4,18 L6.8,18 C8,19.9 9.9,21 12,21 C14.1,21 16,19.9 17.2,18 L20,18 L20,16 L17.9,16 C17.9,15.7 18,15.3 18,15 L18,14 L20,14 L20,12 L18,12 L18,11 C18,10.7 17.9,10.3 17.9,10 L20,10 L20,8 Z M14,16 L10,16 L10,14 L14,14 L14,16 Z M14,12 L10,12 L10,10 L14,10 L14,12 Z" id="Shape" fill="#333333" fill-rule="nonzero"></path>
    </g>
</svg>
