<?xml version="1.0" encoding="iso-8859-1"?>
<!-- Uploaded to: SVG Repo, www.svgrepo.com, Generator: SVG Repo Mixer Tools -->
<svg fill="#2ca9bc" height="800px" width="800px" version="1.1" id="Capa_1" xmlns="http://www.w3.org/2000/svg" xmlns:xlink="http://www.w3.org/1999/xlink" 
	 viewBox="0 0 490 490" xml:space="preserve">
<g>
	<path d="M164.101,296.665h-3.753h-30.371v75.366h14.296v-24.344h16.853l3.305-0.06c10.303,0,17.152-1.66,20.546-4.965
		c3.38-3.32,5.069-10.019,5.069-20.113c0-10.154-1.765-17.017-5.324-20.561C181.178,298.429,174.299,296.665,164.101,296.665z
		 M172.909,333.406c-1.749,1.495-5.862,2.243-12.337,2.243h-16.299v-26.946h17.735c6.101,0,9.884,0.763,11.335,2.288
		c1.465,1.525,2.183,5.473,2.183,11.843C175.525,328.396,174.658,331.91,172.909,333.406z"/>
	<path d="M230.196,328.022c-9.496-0.508-15.088-1.256-16.778-2.213c-1.705-0.957-2.542-3.813-2.542-8.553
		c0-4.008,1.032-6.639,3.11-7.895c2.079-1.256,6.505-1.884,13.279-1.884c5.742,0,9.391,0.553,10.946,1.63
		c1.54,1.092,2.482,3.753,2.811,7.985c0,0.329,0.03,0.837,0.105,1.54h13.982v-2.871c0-7.806-1.974-13.04-5.922-15.731
		c-3.933-2.692-11.574-4.038-22.909-4.038c-11.963,0-19.948,1.466-23.941,4.396c-3.993,2.916-5.981,8.793-5.981,17.585
		c0,8.613,1.645,14.221,4.965,16.838c3.305,2.617,10.931,4.277,22.864,4.965l7.895,0.508c4.456,0.254,7.342,0.987,8.688,2.183
		c1.346,1.196,2.019,3.604,2.019,7.253c0,4.935-0.882,8.09-2.647,9.451c-1.765,1.361-5.862,2.034-12.262,2.034
		c-8.21,0-13.234-0.583-15.073-1.764s-2.766-4.396-2.766-9.66l-0.045-1.6h-13.922l0.06,2.751c0,8.763,1.944,14.58,5.817,17.451
		c3.888,2.871,11.754,4.307,23.612,4.307c13.174,0,21.698-1.466,25.571-4.381c3.858-2.931,5.787-9.406,5.787-19.41
		c0-8.135-1.645-13.488-4.935-16.075C248.693,330.25,241.426,328.651,230.196,328.022z"/>
	<path d="M303.917,296.665h-37.055v75.366h37.489c11.903,0,19.529-2.677,22.924-8.03c3.379-5.353,5.084-17.451,5.084-36.263
		c0-11.514-2.109-19.574-6.325-24.18C321.817,298.953,314.445,296.665,303.917,296.665z M314.818,355.268
		c-2.004,3.155-6.43,4.725-13.279,4.725h-20.382v-51.291h21.264c6.669,0,10.901,1.495,12.696,4.516
		c1.809,3.021,2.707,10.094,2.707,21.204C317.824,345.174,316.822,352.128,314.818,355.268z"/>
	<path d="M77.788,0v265.111H42.189v139.615h0.001l35.59,35.591L77.788,490h370.023V102.422L345.388,0H77.788z M395.793,389.413
		H57.501v-108.99h338.292V389.413z M353.022,36.962l57.816,57.804h-57.816V36.962z"/>
</g>
</svg>