<svg xmlns="http://www.w3.org/2000/svg" width="16" height="16" viewBox="0 0 16 16">
  <path fill="#4285F4" d="M15.2 6.7l-1.4-.3c-.1-.4-.3-.8-.5-1.2l.7-1.2c.2-.4.2-.9-.2-1.2l-1.2-1.2c-.3-.3-.8-.4-1.2-.2l-1.2.7c-.4-.2-.8-.3-1.2-.5L8.8.5C8.7.2 8.4 0 8 0s-.7.2-.8.5l-.3 1.4c-.4.1-.8.3-1.2.5l-1.2-.7c-.4-.2-.9-.1-1.2.2L2.1 3.1c-.3.3-.4.8-.2 1.2l.7 1.2c-.2.4-.3.8-.5 1.2l-1.4.3c-.3.1-.5.4-.5.8v1.7c0 .4.2.7.5.8l1.4.3c.1.4.3.8.5 1.2l-.7 1.2c-.2.4-.1.9.2 1.2l1.2 1.2c.3.3.8.4 1.2.2l1.2-.7c.4.2.8.4 1.2.5l.3 1.4c.1.3.4.5.8.5h1.7c.4 0 .7-.2.8-.5l.3-1.4c.4-.1.8-.3 1.2-.5l1.2.7c.4.2.9.1 1.2-.2l1.2-1.2c.3-.3.4-.8.2-1.2l-.7-1.2c.2-.4.4-.8.5-1.2l1.4-.3c.3-.1.5-.4.5-.8V7.5c0-.4-.2-.7-.5-.8zM8 11c-1.7 0-3-1.3-3-3s1.3-3 3-3 3 1.3 3 3-1.3 3-3 3z"/>
</svg>