<?xml version="1.0" encoding="iso-8859-1"?>
<!-- Uploaded to: SVG Repo, www.svgrepo.com, Generator: SVG Repo Mixer Tools -->
<svg fill="#2ca9bc" version="1.1" id="Capa_1" xmlns="http://www.w3.org/2000/svg" xmlns:xlink="http://www.w3.org/1999/xlink" 
	 viewBox="0 0 490 490" xml:space="preserve">
<g>
	<rect x="167.765" y="296.665" width="14.296" height="75.366"/>
	<path d="M209.724,328.8l-0.105-9.884l-0.164-4.92l-0.224-4.965h0.553l2.378,5.413l2.423,5.398
		c2.288,5.159,3.963,8.763,5.024,10.827l21.533,41.362h24.24v-75.366h-14.296v43.395l0.105,9.72l0.179,4.86l0.165,4.86h-0.508
		l-2.871-6.191l-2.871-6.131c-2.273-4.815-4.277-8.927-6.011-12.307l-19.604-38.206h-24.24v75.366h14.296V328.8z"/>
	<rect x="278.646" y="296.665" width="14.296" height="75.366"/>
	<path d="M77.788,0v265.111H42.189v139.615h0.001l35.59,35.591L77.788,490h370.023V102.422L345.388,0H77.788z M395.793,389.413
		H57.501v-108.99h338.292V389.413z M353.022,36.962l57.816,57.804h-57.816V36.962z"/>
</g>
</svg>