<svg version="1.1" id="Layer_1" xmlns="http://www.w3.org/2000/svg" xmlns:xlink="http://www.w3.org/1999/xlink" x="0px" y="0px" width="100%" viewBox="0 0 310 310" enable-background="new 0 0 310 310" xml:space="preserve">

<path fill="#F07429" opacity="1.000000" stroke="none" d="
M149.893524,83.360542 
	C150.267044,81.464806 150.640549,79.569061 151.380280,77.096870 
	C153.484619,75.680786 155.222748,74.841156 156.956055,74.413162 
	C155.096283,80.175575 156.651840,84.788437 160.032227,89.411911 
	C161.372208,94.877197 162.700104,99.939644 164.105072,105.375778 
	C165.152222,108.918205 165.878525,112.187195 167.133224,115.238930 
	C173.688751,131.183487 180.378433,147.072891 187.043488,163.347351 
	C187.367783,165.144745 187.670044,166.576279 187.665100,167.881287 
	C178.744751,159.223343 174.237900,148.332275 170.118484,137.287445 
	C166.882141,128.610229 164.181671,119.734215 161.014343,111.029755 
	C159.402542,106.600189 155.926056,104.609550 151.188477,104.707718 
	C151.132874,102.946846 151.054504,101.520340 150.739777,99.953964 
	C149.153214,99.814079 147.802994,99.814079 146.444153,99.814079 
	C147.628677,94.163933 148.761093,88.762238 149.893524,83.360542 
z" data-index="1"></path>
<path fill="#E74B2D" opacity="1.000000" stroke="none" d="
M115.206932,191.967285 
	C114.825172,186.982101 114.443405,181.996918 114.314278,176.813049 
	C115.255333,177.222961 116.209137,178.490234 116.590431,178.336594 
	C119.800087,177.043335 122.904945,175.489975 126.425690,173.974426 
	C133.846252,170.755646 140.933060,167.683563 147.902817,164.365616 
	C153.571854,161.666885 159.114227,159.303146 164.993637,163.753601 
	C167.884430,165.941818 170.806213,168.089676 173.734909,170.227127 
	C179.134857,174.168259 184.550262,178.088226 189.967896,182.267181 
	C189.983337,182.684082 189.990082,182.850830 189.995941,183.350128 
	C189.992416,184.126068 189.989792,184.569473 189.625473,184.929413 
	C185.043228,182.633942 180.994247,179.957367 176.561401,178.320175 
	C170.107773,175.936630 163.456467,173.192413 156.739395,172.715576 
	C151.804321,172.365234 146.688782,175.663834 141.540955,176.845169 
	C137.591476,177.751511 133.462830,178.278839 129.420074,178.244385 
	C126.421432,178.218857 124.956375,178.900940 124.578041,181.969971 
	C121.220009,181.885452 118.671936,182.245712 119.264359,186.471451 
	C119.227623,186.706787 119.187317,187.181458 118.838608,187.208832 
	C117.395576,188.813217 116.301254,190.390259 115.206932,191.967285 
z" data-index="2"></path>
<path fill="#F7982F" opacity="1.000000" stroke="none" d="
M164.028015,105.002090 
	C162.700104,99.939644 161.372208,94.877197 160.385864,89.470322 
	C162.116776,91.779404 163.442963,94.468719 164.919373,97.072868 
	C165.792053,98.612144 166.042816,102.000359 169.347015,98.899757 
	C170.077789,98.958954 170.494995,98.997894 170.912216,99.036842 
	C180.016830,119.837730 189.126526,140.636398 198.208557,161.447144 
	C198.597107,162.337479 198.729996,163.339386 198.952789,164.981705 
	C198.906357,166.076248 198.889145,166.478409 198.636780,166.673553 
	C196.596542,164.963837 194.791428,163.461121 193.512573,162.396515 
	C191.941269,165.409851 190.489502,168.193954 188.912430,170.687729 
	C188.515518,169.600861 188.243912,168.804337 187.972290,168.007812 
	C187.670044,166.576279 187.367783,165.144745 187.350525,163.203278 
	C190.706863,160.066589 189.758270,157.110046 188.285797,154.155945 
	C187.478363,152.536041 186.416107,151.035751 185.688232,149.384766 
	C179.611954,135.602493 173.635010,121.776054 167.465881,108.035751 
	C166.895782,106.765991 165.200729,106.001305 164.028015,105.002090 
z" data-index="3"></path>
<path fill="#E62C21" opacity="1.000000" stroke="none" d="
M56.464546,186.032196 
	C59.470161,175.348190 68.571220,169.991013 78.433060,173.100830 
	C88.553329,176.292114 92.498177,185.416092 88.378082,196.689514 
	C87.584747,192.635788 85.138222,190.830170 81.547630,191.930847 
	C75.513504,193.780533 70.777290,190.234329 65.529762,188.819397 
	C62.479294,187.996887 59.484432,186.968140 56.464546,186.032196 
z" data-index="4"></path>
<path fill="#E62C21" opacity="1.000000" stroke="none" d="
M220.464554,185.032196 
	C223.470108,174.348236 232.571167,168.991074 242.433044,172.100845 
	C252.553299,175.292099 256.498199,184.416107 252.378082,195.689529 
	C251.584793,191.635742 249.138214,189.830200 245.547638,190.930878 
	C239.513519,192.780594 234.777313,189.234299 229.529785,187.819351 
	C226.479309,186.996857 223.484436,185.968124 220.464554,185.032196 
z" data-index="5"></path>
<path fill="#F58C2D" opacity="1.000000" stroke="none" d="
M149.625488,83.650528 
	C148.761093,88.762238 147.628677,94.163933 146.444153,99.814079 
	C147.802994,99.814079 149.153214,99.814079 150.601288,100.283173 
	C150.055191,102.638504 149.511566,104.566261 148.751419,106.404465 
	C142.465775,121.604286 136.165955,136.798431 129.785461,151.958527 
	C129.164612,153.433640 127.970558,154.667511 126.861015,155.735107 
	C125.136726,153.696320 123.594017,151.935791 122.051300,150.175262 
	C127.509377,137.976120 133.216431,125.880531 138.346024,113.544800 
	C142.385666,103.830215 145.713470,93.819626 149.625488,83.650528 
z" data-index="6"></path>
<path fill="#E02620" opacity="1.000000" stroke="none" d="
M56.323196,186.410706 
	C59.484432,186.968140 62.479294,187.996887 65.529762,188.819397 
	C70.777290,190.234329 75.513504,193.780533 81.547630,191.930847 
	C85.138222,190.830170 87.584747,192.635788 88.108688,196.956665 
	C85.029716,203.263779 79.893860,206.459991 73.447662,206.429382 
	C65.979637,206.393951 60.285549,202.757294 57.357071,195.063751 
	C57.321754,194.024811 57.199326,193.517883 57.076897,193.010956 
	C56.778545,190.937027 56.480198,188.863113 56.323196,186.410706 
z" data-index="7"></path>
<path fill="#E02620" opacity="1.000000" stroke="none" d="
M220.323212,185.410690 
	C223.484436,185.968124 226.479309,186.996857 229.529785,187.819351 
	C234.777313,189.234299 239.513519,192.780594 245.547638,190.930878 
	C249.138214,189.830200 251.584793,191.635742 252.108688,195.956665 
	C249.029724,202.263763 243.893875,205.459946 237.447693,205.429382 
	C229.979660,205.393967 224.285583,201.757294 221.357071,194.063782 
	C221.321747,193.024811 221.199326,192.517868 221.076904,192.010925 
	C220.778549,189.937012 220.480209,187.863098 220.323212,185.410690 
z" data-index="8"></path>
<path fill="#951318" opacity="1.000000" stroke="none" d="
M171.993011,223.978180 
	C166.870361,225.149979 161.747726,226.321777 156.150146,226.999237 
	C154.375778,225.945877 153.068680,225.403976 151.778259,224.824951 
	C145.976013,222.221222 140.115280,219.736053 134.406418,216.941025 
	C131.633926,215.583633 129.148865,213.639175 126.472305,211.599258 
	C125.962784,210.368225 125.514656,209.498428 124.981689,208.507721 
	C124.768387,208.239426 124.617836,208.119873 124.358932,207.695160 
	C124.196884,206.909775 124.121094,206.457382 124.218369,205.765320 
	C124.628906,204.983521 124.866386,204.441437 125.371803,204.099091 
	C134.647797,217.502502 147.404068,222.910004 163.028107,221.908585 
	C171.051804,221.394302 177.761551,218.103561 182.442169,211.219147 
	C184.041672,208.866547 183.536057,207.582336 181.099915,206.585907 
	C183.374802,204.280777 185.473022,202.254593 187.571243,200.228394 
	C187.926239,200.537628 188.281219,200.846863 188.636200,201.156097 
	C188.356781,202.819031 188.077362,204.481964 187.746094,206.453552 
	C189.012115,206.282928 189.815125,206.174683 190.465424,206.398315 
	C188.195511,209.805939 186.078323,212.881683 183.678619,216.141052 
	C179.595062,218.875854 175.794037,221.427032 171.993011,223.978180 
z" data-index="9"></path>
<path fill="#EA763C" opacity="1.000000" stroke="none" d="
M170.926849,98.653969 
	C170.494995,98.997894 170.077789,98.958954 169.263702,98.533043 
	C166.795868,91.142715 164.607086,84.171135 162.705566,77.122063 
	C161.808029,73.794853 160.131363,72.734589 156.960876,74.001526 
	C155.222748,74.841156 153.484619,75.680786 151.495789,76.731712 
	C152.194382,71.067841 153.144089,65.192741 154.090973,59.317181 
	C154.117294,59.153801 154.051163,58.941925 154.132584,58.826023 
	C155.498779,56.881168 156.881622,54.948002 158.260773,53.012253 
	C159.457779,54.945198 161.270111,56.744057 161.726456,58.838394 
	C162.744492,63.510273 162.656372,68.435257 163.795746,73.065994 
	C165.880920,81.540695 168.528442,89.877052 170.926849,98.653969 
M154.428406,70.053925 
	C154.428406,70.053925 154.432251,69.970703 154.428406,70.053925 
z" data-index="10"></path>
<path fill="#DB2922" opacity="1.000000" stroke="none" d="
M14.098513,198.805634 
	C12.360203,194.096695 13.929826,190.894531 17.850323,188.954758 
	C21.726906,187.036728 25.405096,187.970993 28.152906,191.195877 
	C30.732567,194.223419 30.587978,197.659439 28.208504,200.815292 
	C24.908272,205.192352 18.738749,204.422974 14.098513,198.805634 
z" data-index="11" style="opacity: 1;"></path>
<path fill="#DB2922" opacity="1.000000" stroke="none" d="
M292.391724,203.168701 
	C289.954712,202.871429 287.589813,203.008835 285.866699,202.023666 
	C282.761322,200.248230 281.116699,197.255051 282.406342,193.563232 
	C283.783447,189.621002 286.942047,187.853760 290.963287,188.148376 
	C294.798065,188.429321 297.743195,190.684280 298.361694,194.441650 
	C299.047333,198.606583 297.123352,201.830399 292.391724,203.168701 
z" data-index="12"></path>
<path fill="#F27B30" opacity="1.000000" stroke="none" d="
M121.814529,150.428253 
	C123.594017,151.935791 125.136726,153.696320 126.857620,156.062866 
	C127.035194,157.106079 127.034576,157.543259 127.055168,158.279846 
	C128.052460,159.051987 129.028564,159.524719 130.030884,160.250732 
	C130.071289,160.673187 130.085449,160.842346 130.003235,161.364410 
	C129.268539,163.807220 128.630219,165.897125 127.812561,168.149551 
	C127.403557,168.540482 127.192703,168.785095 126.656021,168.984009 
	C123.934616,167.093445 121.494423,165.338821 119.220367,163.390305 
	C118.551628,162.817307 118.353554,161.695007 117.939789,160.824448 
	C119.152443,157.443375 120.365105,154.062317 121.814529,150.428253 
z" data-index="13"></path>
<path fill="#F25237" opacity="1.000000" stroke="none" d="
M189.987167,185.012863 
	C189.989792,184.569473 189.992416,184.126068 190.389069,183.345657 
	C192.752670,183.256607 195.536041,182.787918 196.519272,183.904465 
	C198.456879,186.104782 199.396027,189.184326 200.748138,191.900223 
	C200.658325,192.540344 200.568527,193.180466 200.251648,194.221100 
	C200.024567,194.621628 199.997650,194.519485 199.997650,194.519485 
	C198.294754,198.266159 196.591873,202.012848 194.186737,205.891205 
	C192.939301,205.996338 192.394104,205.969803 191.943787,205.571655 
	C192.751633,202.420425 193.464584,199.640793 194.313934,196.575989 
	C194.948929,194.866150 195.447540,193.441513 195.912979,191.675461 
	C194.932144,190.540115 193.984482,189.746170 193.033325,188.711853 
	C193.029846,188.471512 193.014084,187.991013 192.896362,187.705322 
	C191.848160,186.617371 190.917664,185.815125 189.987167,185.012863 
z" data-index="14"></path>
<path fill="#DA332C" opacity="1.000000" stroke="none" d="
M124.045303,206.005005 
	C124.121094,206.457382 124.196884,206.909775 123.942398,207.710297 
	C123.065308,208.072266 122.518486,208.086090 121.971672,208.099915 
	C119.680603,202.978516 117.389526,197.857101 115.152695,192.351501 
	C116.301254,190.390259 117.395576,188.813217 118.904083,187.536819 
	C119.890945,189.556396 120.463623,191.275330 121.099426,193.366394 
	C121.472565,195.474838 121.782593,197.211182 121.962555,199.245697 
	C122.570099,201.697586 123.307701,203.851303 124.045303,206.005005 
z" data-index="15"></path>
<path fill="#BF1F21" opacity="1.000000" stroke="none" d="
M126.533691,211.960480 
	C129.148865,213.639175 131.633926,215.583633 134.406418,216.941025 
	C140.115280,219.736053 145.976013,222.221222 151.778259,224.824951 
	C153.068680,225.403976 154.375778,225.945877 155.817413,226.846191 
	C143.672043,226.693970 133.604950,221.475845 125.473274,212.386902 
	C126.011452,212.016586 126.272575,211.988541 126.533691,211.960480 
z" data-index="16"></path>
<path fill="#EC612C" opacity="1.000000" stroke="none" d="
M200.847946,191.501495 
	C199.396027,189.184326 198.456879,186.104782 196.519272,183.904465 
	C195.536041,182.787918 192.752670,183.256607 190.389984,183.013092 
	C189.990082,182.850830 189.983337,182.684082 189.977753,181.930420 
	C189.987228,180.894760 189.995529,180.446014 190.355347,179.970093 
	C193.819489,179.257568 196.932098,178.572220 200.719803,177.738205 
	C200.771271,177.165497 200.916077,175.554230 201.060883,173.942963 
	C201.023178,179.662888 200.985458,185.382828 200.847946,191.501495 
z" data-index="17"></path>
<path fill="#F27B30" opacity="1.000000" stroke="none" d="
M201.064026,173.535492 
	C200.916077,175.554230 200.771271,177.165497 200.719803,177.738205 
	C196.932098,178.572220 193.819489,179.257568 190.329590,179.643005 
	C189.915924,178.907089 189.879532,178.471100 189.869995,177.708130 
	C189.898315,176.945618 189.899750,176.510071 190.244415,175.973251 
	C193.349060,172.874832 196.110489,169.877701 198.871918,166.880569 
	C198.889145,166.478409 198.906357,166.076248 198.964661,165.375763 
	C199.692871,167.760971 200.380005,170.444504 201.064026,173.535492 
z" data-index="18"></path>
<path fill="#ED682B" opacity="1.000000" stroke="none" d="
M117.663620,161.081573 
	C118.353554,161.695007 118.551628,162.817307 119.220367,163.390305 
	C121.494423,165.338821 123.934616,167.093445 126.522049,169.297516 
	C126.481369,170.780731 126.230003,171.888550 125.602615,172.943390 
	C121.879448,172.257614 118.532303,171.624802 115.185158,170.992004 
	C115.919258,167.774246 116.653351,164.556473 117.663620,161.081573 
z" data-index="19"></path>
<path fill="#E95B2C" opacity="1.000000" stroke="none" d="
M115.061852,171.346313 
	C118.532303,171.624802 121.879448,172.257614 125.618088,173.198059 
	C126.020172,173.675430 126.030754,173.845154 126.041328,174.014862 
	C122.904945,175.489975 119.800087,177.043335 116.590431,178.336594 
	C116.209137,178.490234 115.255333,177.222961 114.397110,176.362183 
	C114.464386,174.640213 114.701462,173.170410 115.061852,171.346313 
z" data-index="20"></path>
<path fill="#E43A2D" opacity="1.000000" stroke="none" d="
M191.848923,205.943268 
	C192.394104,205.969803 192.939301,205.996338 193.894028,206.036224 
	C194.248474,206.220398 194.193390,206.391205 193.962708,206.912460 
	C193.699646,207.498184 193.708725,207.734772 193.814316,207.972672 
	C191.250824,210.777542 188.687332,213.582413 185.699402,216.603165 
	C184.837021,216.531845 184.399094,216.244644 183.961151,215.957428 
	C186.078323,212.881683 188.195511,209.805939 190.667236,206.387970 
	C191.296356,206.002487 191.572067,205.968323 191.848923,205.943268 
z" data-index="21"></path>
<path fill="#DA332C" opacity="1.000000" stroke="none" d="
M183.678619,216.141068 
	C184.399094,216.244644 184.837021,216.531845 185.525238,216.902298 
	C181.397324,219.321442 177.019150,221.657349 172.316986,223.985718 
	C175.794037,221.427032 179.595062,218.875854 183.678619,216.141068 
z" data-index="22"></path>
<path fill="#BF1F21" opacity="1.000000" stroke="none" d="
M122.028412,208.392303 
	C122.518486,208.086090 123.065308,208.072266 124.028648,208.043304 
	C124.617836,208.119873 124.768387,208.239426 124.847038,208.800018 
	C124.523758,209.782822 124.250267,210.352448 123.976791,210.922089 
	C123.346252,210.176285 122.715706,209.430481 122.028412,208.392303 
z" data-index="23"></path>
<path fill="#DA332C" opacity="1.000000" stroke="none" d="
M124.083878,211.162170 
	C124.250267,210.352448 124.523758,209.782822 124.931885,208.920914 
	C125.514656,209.498428 125.962784,210.368225 126.472305,211.599243 
	C126.272575,211.988541 126.011452,212.016586 125.357956,212.074829 
	C124.707390,211.870758 124.449181,211.636505 124.083878,211.162170 
z" data-index="24"></path>
<path fill="#E62C21" opacity="1.000000" stroke="none" d="
M57.053185,193.330444 
	C57.199326,193.517883 57.321754,194.024811 57.353935,194.716034 
	C57.185619,194.483536 57.107548,194.066727 57.053185,193.330444 
z" data-index="25"></path>
<path fill="#E62C21" opacity="1.000000" stroke="none" d="
M221.053177,192.330429 
	C221.199326,192.517868 221.321747,193.024811 221.353943,193.716064 
	C221.185608,193.483551 221.107544,193.066742 221.053177,192.330429 
z" data-index="26"></path>
<path fill="#F25237" opacity="1.000000" stroke="none" d="
M193.881104,207.743958 
	C193.708725,207.734772 193.699646,207.498184 193.840561,207.152359 
	C193.894012,207.041794 193.947891,207.515259 193.881104,207.743958 
z" data-index="27"></path>
<path fill="#EC612C" opacity="1.000000" stroke="none" d="
M200.035660,194.541290 
	C199.997650,194.519485 200.024567,194.621628 200.016037,194.650696 
	C200.007507,194.679749 200.073669,194.563110 200.035660,194.541290 
z" data-index="28"></path>
<path fill="#ED682B" opacity="1.000000" stroke="none" d="
M187.665100,167.881287 
	C188.243912,168.804337 188.515518,169.600861 188.895813,171.070602 
	C188.973038,172.508224 188.941589,173.272614 188.592468,174.028717 
	C187.849045,174.013672 187.423309,174.006943 186.907959,173.667084 
	C186.209534,172.349442 185.652756,171.327988 184.983948,170.386078 
	C177.441360,159.763702 170.472443,148.894485 166.559998,136.244293 
	C164.908524,130.904617 162.261139,125.786301 159.467484,120.910553 
	C156.602051,115.909546 154.484131,115.873169 150.979904,120.505432 
	C147.720291,124.814339 144.933273,129.480774 141.977234,133.607330 
	C144.704880,125.475601 147.393494,117.726334 150.244690,109.753548 
	C150.599915,109.013359 150.792557,108.496689 150.997772,107.612022 
	C151.062119,106.510048 151.113922,105.776062 151.165710,105.042084 
	C155.926056,104.609550 159.402542,106.600189 161.014343,111.029755 
	C164.181671,119.734215 166.882141,128.610229 170.118484,137.287445 
	C174.237900,148.332275 178.744751,159.223343 187.665100,167.881287 
z" data-index="29"></path>
<path fill="#FCB32F" opacity="1.000000" stroke="none" d="
M164.105072,105.375771 
	C165.200729,106.001305 166.895782,106.765991 167.465881,108.035751 
	C173.635010,121.776054 179.611954,135.602493 185.688232,149.384766 
	C186.416107,151.035751 187.478363,152.536041 188.285797,154.155945 
	C189.758270,157.110046 190.706863,160.066589 187.328491,162.837433 
	C180.378433,147.072891 173.688751,131.183487 167.133224,115.238930 
	C165.878525,112.187195 165.152222,108.918205 164.105072,105.375771 
z" data-index="30"></path>
<path fill="#F7982F" opacity="1.000000" stroke="none" d="
M150.082108,109.977066 
	C147.393494,117.726334 144.704880,125.475601 141.763062,133.846252 
	C141.020203,135.652176 140.530563,136.836731 139.829468,138.283020 
	C139.080536,140.029984 138.543030,141.515198 137.983917,143.225342 
	C137.962280,143.450272 137.947342,143.901962 137.684845,144.128006 
	C135.939148,147.566223 134.455933,150.778397 132.765228,154.242355 
	C131.719345,156.010925 130.880920,157.527710 129.751648,158.907104 
	C128.651871,158.506607 127.842918,158.243530 127.033966,157.980453 
	C127.034576,157.543259 127.035194,157.106079 127.039200,156.341125 
	C127.970558,154.667511 129.164612,153.433640 129.785461,151.958527 
	C136.165955,136.798431 142.465775,121.604286 148.751419,106.404465 
	C149.511566,104.566261 150.055191,102.638504 150.837646,100.423050 
	C151.054504,101.520340 151.132874,102.946846 151.188477,104.707718 
	C151.113922,105.776062 151.062119,106.510048 150.829071,107.833954 
	C150.459244,108.941605 150.270676,109.459335 150.082108,109.977066 
z" data-index="31"></path>
<path fill="#F58C2D" opacity="1.000000" stroke="none" d="
M156.956055,74.413162 
	C160.131363,72.734589 161.808029,73.794853 162.705566,77.122063 
	C164.607086,84.171135 166.795868,91.142715 168.950165,98.512787 
	C166.042816,102.000359 165.792053,98.612144 164.919373,97.072868 
	C163.442963,94.468719 162.116776,91.779404 160.373810,89.067490 
	C156.651840,84.788437 155.096283,80.175575 156.956055,74.413162 
z" data-index="32"></path>
<path fill="#E7432E" opacity="1.000000" stroke="none" d="
M189.625473,184.929413 
	C190.917664,185.815125 191.848160,186.617371 192.514099,187.790527 
	C188.366501,188.516098 183.648071,190.440918 180.768799,188.908997 
	C174.124420,185.373856 167.129318,184.629120 160.137405,184.372009 
	C155.077469,184.185944 148.930634,184.570068 145.107925,187.287491 
	C140.637329,190.465469 137.946854,189.967422 134.145905,187.461578 
	C131.570831,185.763901 128.724670,184.477432 125.843384,182.821915 
	C125.468872,182.397247 125.236832,182.171997 124.990906,181.961044 
	C124.956375,178.900940 126.421432,178.218857 129.420074,178.244385 
	C133.462830,178.278839 137.591476,177.751511 141.540955,176.845169 
	C146.688782,175.663834 151.804321,172.365234 156.739395,172.715576 
	C163.456467,173.192413 170.107773,175.936630 176.561401,178.320175 
	C180.994247,179.957367 185.043228,182.633942 189.625473,184.929413 
z" data-index="33"></path>
<path fill="#E8532C" opacity="1.000000" stroke="none" d="
M126.425690,173.974426 
	C126.030754,173.845154 126.020172,173.675430 125.994110,173.251022 
	C126.230003,171.888550 126.481369,170.780731 126.866699,169.359421 
	C127.192703,168.785095 127.403557,168.540482 128.143555,168.055786 
	C135.511444,162.415878 142.696396,157.391220 149.120163,151.532013 
	C154.021515,147.061401 159.810043,146.653809 164.152771,151.850113 
	C168.311768,156.826614 172.319962,161.933456 176.601303,166.801041 
	C178.080139,168.482361 180.180893,169.616669 182.235260,171.160278 
	C182.981659,171.880844 183.490356,172.441971 184.036163,173.368790 
	C184.540985,177.120880 186.874649,178.003845 189.843140,178.035095 
	C189.879532,178.471100 189.915924,178.907089 189.978073,179.670181 
	C189.995529,180.446014 189.987228,180.894760 189.969086,181.680267 
	C184.550262,178.088226 179.134857,174.168259 173.734909,170.227127 
	C170.806213,168.089676 167.884430,165.941818 164.993637,163.753601 
	C159.114227,159.303146 153.571854,161.666885 147.902817,164.365616 
	C140.933060,167.683563 133.846252,170.755646 126.425690,173.974426 
z" data-index="34"></path>
<path fill="#DA332C" opacity="1.000000" stroke="none" d="
M124.578041,181.969971 
	C125.236832,182.171997 125.468872,182.397247 125.857956,183.191132 
	C128.451416,186.761154 130.797989,189.841782 133.309998,192.781006 
	C142.968079,204.081680 155.075974,206.912506 169.202042,203.341278 
	C172.711990,202.453918 176.470062,202.548004 180.014511,202.514603 
	C179.060791,203.825531 178.347778,204.998154 177.331299,205.772293 
	C162.129745,217.350037 138.454620,212.124969 128.808960,195.602036 
	C126.660027,191.920944 125.827965,185.877777 119.301102,186.236115 
	C118.671936,182.245712 121.220009,181.885452 124.578041,181.969971 
z" data-index="35"></path>
<path fill="#BF1F21" opacity="1.000000" stroke="none" d="
M119.264359,186.471451 
	C125.827965,185.877777 126.660027,191.920944 128.808960,195.602036 
	C138.454620,212.124969 162.129745,217.350037 177.331299,205.772293 
	C178.347778,204.998154 179.060791,203.825531 180.292633,202.320435 
	C183.924561,198.704727 187.178802,195.606842 190.441849,192.500565 
	C191.799072,194.084824 192.988312,195.472992 194.177551,196.861176 
	C193.464584,199.640793 192.751633,202.420425 191.943787,205.571655 
	C191.572067,205.968323 191.296356,206.002487 190.819962,206.056107 
	C189.815125,206.174683 189.012115,206.282928 187.746094,206.453552 
	C188.077362,204.481964 188.356781,202.819031 188.636200,201.156097 
	C188.281219,200.846863 187.926239,200.537628 187.571243,200.228394 
	C185.473022,202.254593 183.374802,204.280777 180.827271,206.792465 
	C174.002350,211.955078 167.358719,215.756378 159.087265,216.108627 
	C145.043228,216.706711 135.985184,208.351776 127.277603,198.806244 
	C125.861168,195.900925 125.607849,192.030640 121.036308,192.994278 
	C120.463623,191.275330 119.890945,189.556396 119.252792,187.509460 
	C119.187317,187.181458 119.227623,186.706787 119.264359,186.471451 
z" data-index="36"></path>
<path fill="#F58C2D" opacity="1.000000" stroke="none" d="
M188.910141,174.037018 
	C188.941589,173.272614 188.973038,172.508224 189.021118,171.360947 
	C190.489502,168.193954 191.941269,165.409851 193.512573,162.396515 
	C194.791428,163.461121 196.596542,164.963837 198.636780,166.673553 
	C196.110489,169.877701 193.349060,172.874832 190.073059,175.744354 
	C189.342361,175.090164 189.126251,174.563599 188.910141,174.037018 
z" data-index="37"></path>
<path fill="#580408" opacity="1.000000" stroke="none" d="
M127.327568,199.087402 
	C135.985184,208.351776 145.043228,216.706711 159.087265,216.108627 
	C167.358719,215.756378 174.002350,211.955078 180.650620,207.071411 
	C183.536057,207.582336 184.041672,208.866547 182.442169,211.219147 
	C177.761551,218.103561 171.051804,221.394302 163.028107,221.908585 
	C147.404068,222.910004 134.647797,217.502502 125.248779,203.812424 
	C124.558922,202.549225 124.260025,201.772461 124.290466,200.809525 
	C125.522400,200.111359 126.424980,199.599380 127.327568,199.087402 
z" data-index="38"></path>
<path fill="#BF1F21" opacity="1.000000" stroke="none" d="
M123.961121,200.995697 
	C124.260025,201.772461 124.558922,202.549225 124.980850,203.612671 
	C124.866386,204.441437 124.628906,204.983521 124.218369,205.765320 
	C123.307701,203.851303 122.570099,201.697586 122.155380,199.445282 
	C122.972549,199.896332 123.466835,200.446014 123.961121,200.995697 
z" data-index="39"></path>
<path fill="#F07429" opacity="1.000000" stroke="none" d="
M154.430328,70.012314 
	C154.432251,69.970703 154.428406,70.053925 154.430328,70.012314 
z" data-index="40"></path>
<path fill="#EC612C" opacity="1.000000" stroke="none" d="
M183.999039,173.003098 
	C183.490356,172.441971 182.981659,171.880844 182.157578,170.816284 
	C181.534561,169.543564 181.327728,168.713165 180.903946,168.014297 
	C175.668152,159.380005 170.441254,150.739777 165.118301,142.159210 
	C163.382462,139.361084 161.631989,136.496094 159.424881,134.085983 
	C156.826492,131.248596 153.922058,131.212067 151.559906,134.702927 
	C149.048050,138.414993 146.824921,142.367188 143.967346,145.790115 
	C139.572693,151.054199 134.744095,155.955994 130.099609,161.011505 
	C130.085449,160.842346 130.071289,160.673187 130.041107,160.012543 
	C130.025116,159.521057 130.042496,159.044495 130.042496,159.044495 
	C130.880920,157.527710 131.719345,156.010925 133.084839,154.116608 
	C135.057053,150.460052 136.502197,147.181000 137.947342,143.901962 
	C137.947342,143.901962 137.962280,143.450272 138.283569,143.105347 
	C139.083542,141.180710 139.562241,139.600998 140.040924,138.021286 
	C140.530563,136.836731 141.020203,135.652176 141.724014,134.228699 
	C144.933273,129.480774 147.720291,124.814339 150.979904,120.505432 
	C154.484131,115.873169 156.602051,115.909546 159.467484,120.910553 
	C162.261139,125.786301 164.908524,130.904617 166.559998,136.244293 
	C170.472443,148.894485 177.441360,159.763702 184.983948,170.386078 
	C185.652756,171.327988 186.209534,172.349442 186.597733,173.602753 
	C185.584427,173.582077 184.791733,173.292587 183.999039,173.003098 
z" data-index="41"></path>
<path fill="#E95B2C" opacity="1.000000" stroke="none" d="
M130.003235,161.364410 
	C134.744095,155.955994 139.572693,151.054199 143.967346,145.790115 
	C146.824921,142.367188 149.048050,138.414993 151.559906,134.702927 
	C153.922058,131.212067 156.826492,131.248596 159.424881,134.085983 
	C161.631989,136.496094 163.382462,139.361084 165.118301,142.159210 
	C170.441254,150.739777 175.668152,159.380005 180.903946,168.014297 
	C181.327728,168.713165 181.534561,169.543564 181.919876,170.656860 
	C180.180893,169.616669 178.080139,168.482361 176.601303,166.801041 
	C172.319962,161.933456 168.311768,156.826614 164.152771,151.850113 
	C159.810043,146.653809 154.021515,147.061401 149.120163,151.532013 
	C142.696396,157.391220 135.511444,162.415878 128.322891,167.893250 
	C128.630219,165.897125 129.268539,163.807220 130.003235,161.364410 
z" data-index="42"></path>
<path fill="#F58C2D" opacity="1.000000" stroke="none" d="
M129.751648,158.907104 
	C130.042496,159.044495 130.025116,159.521057 130.014893,159.759247 
	C129.028564,159.524719 128.052460,159.051987 127.055168,158.279846 
	C127.842918,158.243530 128.651871,158.506607 129.751648,158.907104 
z" data-index="43"></path>
<path fill="#E43A2D" opacity="1.000000" stroke="none" d="
M194.313934,196.575989 
	C192.988312,195.472992 191.799072,194.084824 190.441849,192.500565 
	C187.178802,195.606842 183.924561,198.704727 180.392212,201.996796 
	C176.470062,202.548004 172.711990,202.453918 169.202042,203.341278 
	C155.075974,206.912506 142.968079,204.081680 133.309998,192.781006 
	C130.797989,189.841782 128.451416,186.761154 126.014305,183.376251 
	C128.724670,184.477432 131.570831,185.763901 134.145905,187.461578 
	C137.946854,189.967422 140.637329,190.465469 145.107925,187.287491 
	C148.930634,184.570068 155.077469,184.185944 160.137405,184.372009 
	C167.129318,184.629120 174.124420,185.373856 180.768799,188.908997 
	C183.648071,190.440918 188.366501,188.516098 192.631805,188.076202 
	C193.014084,187.991013 193.029846,188.471512 193.071991,189.054245 
	C194.058151,190.430283 195.002151,191.223572 195.946152,192.016861 
	C195.447540,193.441513 194.948929,194.866150 194.313934,196.575989 
z" data-index="44"></path>
<path fill="#E7432E" opacity="1.000000" stroke="none" d="
M195.912979,191.675461 
	C195.002151,191.223572 194.058151,190.430283 193.075485,189.294586 
	C193.984482,189.746170 194.932144,190.540115 195.912979,191.675461 
z" data-index="45"></path>
<path fill="#951318" opacity="1.000000" stroke="none" d="
M124.290474,200.809525 
	C123.466835,200.446014 122.972549,199.896332 122.285446,199.147095 
	C121.782593,197.211182 121.472565,195.474838 121.099426,193.366394 
	C125.607849,192.030640 125.861168,195.900925 127.277603,198.806244 
	C126.424980,199.599380 125.522400,200.111359 124.290474,200.809525 
z" data-index="46"></path>
<path fill="#E95B2C" opacity="1.000000" stroke="none" d="
M184.036163,173.368790 
	C184.791733,173.292587 185.584427,173.582077 186.687347,173.935883 
	C187.423309,174.006943 187.849045,174.013672 188.592468,174.028717 
	C189.126251,174.563599 189.342361,175.090164 189.729828,175.845642 
	C189.899750,176.510071 189.898315,176.945618 189.869995,177.708130 
	C186.874649,178.003845 184.540985,177.120880 184.036163,173.368790 
z" data-index="47"></path>
<path fill="#F07429" opacity="1.000000" stroke="none" d="
M150.244690,109.753548 
	C150.270676,109.459335 150.459244,108.941605 150.816498,108.201950 
	C150.792557,108.496689 150.599915,109.013359 150.244690,109.753548 
z" data-index="48"></path>
<path fill="#ED682B" opacity="1.000000" stroke="none" d="
M137.684845,144.128006 
	C136.502197,147.181000 135.057053,150.460052 133.292313,153.864838 
	C134.455933,150.778397 135.939148,147.566223 137.684845,144.128006 
z" data-index="49"></path>
<path fill="#ED682B" opacity="1.000000" stroke="none" d="
M139.829498,138.283020 
	C139.562241,139.600998 139.083542,141.180710 138.305191,142.880417 
	C138.543030,141.515198 139.080536,140.029984 139.829498,138.283020 
z" data-index="50"></path>
</svg>