<svg xmlns="http://www.w3.org/2000/svg" version="1.1" width="920px" height="511px" style="shape-rendering:geometricPrecision; text-rendering:geometricPrecision; image-rendering:optimizeQuality; fill-rule:evenodd; clip-rule:evenodd" xmlns:xlink="http://www.w3.org/1999/xlink">
<g></g>
<g><path style="opacity: 1; visibility: hidden;" fill="#ffefef" d="M 457.5,77.5 C 456.833,77.1667 456.167,76.8333 455.5,76.5C 455.238,75.0222 455.571,73.6888 456.5,72.5C 457.452,74.0453 457.785,75.712 457.5,77.5 Z" data-index="1"></path></g>
<g></g>
<g><path style="opacity: 1; visibility: visible;" fill="#ffe4e4" d="M 455.5,76.5 C 456.167,76.8333 456.833,77.1667 457.5,77.5C 457.892,79.1789 458.392,80.8455 459,82.5C 476.54,107.232 491.373,133.565 503.5,161.5C 519.115,149.236 529.449,133.569 534.5,114.5C 551.589,129.001 563.422,147.001 570,168.5C 584.72,148.887 603.554,134.721 626.5,126C 633.156,124.49 639.822,123.323 646.5,122.5C 651.363,122.181 656.03,122.514 660.5,123.5C 644.378,145.362 635.878,170.029 635,197.5C 630.647,215.87 622.814,232.536 611.5,247.5C 612.333,247.833 613.167,248.167 614,248.5C 631.665,244.261 649.499,243.428 667.5,246C 673.868,247.898 679.868,250.565 685.5,254C 694.434,260.93 702.767,268.597 710.5,277C 716.648,282.243 723.315,286.743 730.5,290.5C 710.833,307.005 688.499,318.838 663.5,326C 651.527,329.327 639.527,332.327 627.5,335C 642.713,339.875 655.546,348.375 666,360.5C 672.385,368.482 675.218,377.482 674.5,387.5C 664.623,383.282 654.29,381.115 643.5,381C 634.5,380.333 625.5,380.333 616.5,381C 593.189,386.51 570.189,385.51 547.5,378C 536.895,373.697 526.562,368.864 516.5,363.5C 514.481,368.713 511.981,373.713 509,378.5C 490.142,399.351 472.809,421.351 457,444.5C 441.113,421.41 423.78,399.41 405,378.5C 402.295,374.423 400.128,370.09 398.5,365.5C 375.573,379.751 350.573,386.585 323.5,386C 301.91,382.455 280.244,381.788 258.5,384C 252.217,384.928 246.217,386.761 240.5,389.5C 240.167,388.5 239.833,387.5 239.5,386.5C 243.133,368.698 252.799,355.198 268.5,346C 274.712,342.727 281.046,339.727 287.5,337C 252.221,330.854 220.554,316.854 192.5,295C 198.17,292.167 203.503,288.834 208.5,285C 218.202,275.63 228.202,266.63 238.5,258C 249.187,251.36 260.854,248.194 273.5,248.5C 283.574,249.011 293.574,249.845 303.5,251C 288.224,229.788 280.057,205.954 279,179.5C 274.98,161.45 267.48,144.95 256.5,130C 292.246,128.79 321.079,142.29 343,170.5C 349.756,147.77 362.09,128.77 380,113.5C 382.05,125.266 387.05,135.599 395,144.5C 400,149.5 405,154.5 410,159.5C 421.409,133.348 435.409,108.681 452,85.5C 453.741,82.6907 454.908,79.6907 455.5,76.5 Z" data-index="3"></path></g>
<g><path style="opacity: 1; visibility: visible;" fill="#ffd6d6" d="M 505.5,316.5 C 499.491,316.666 493.491,316.499 487.5,316C 493.037,315.579 498.37,314.413 503.5,312.5C 502.687,311.186 501.687,310.019 500.5,309C 516.426,300.079 530.259,288.579 542,274.5C 542.688,273.668 542.521,273.002 541.5,272.5C 524.451,280.441 507.617,288.775 491,297.5C 488.428,295.794 485.928,293.961 483.5,292C 482.5,291.333 481.5,291.333 480.5,292C 474.667,298.5 468.833,305 463,311.5C 467.096,303.307 471.263,294.974 475.5,286.5C 474.095,284.093 472.095,282.426 469.5,281.5C 472.435,258.513 468.435,236.846 457.5,216.5C 446.373,236.804 442.039,258.471 444.5,281.5C 441.714,282.789 439.381,284.622 437.5,287C 441.735,296.141 446.735,304.807 452.5,313C 451.906,313.464 451.239,313.631 450.5,313.5C 448.427,312.7 446.76,311.367 445.5,309.5C 440.894,303.556 435.894,297.89 430.5,292.5C 427.906,293.592 425.739,295.259 424,297.5C 407.821,288.827 391.321,280.827 374.5,273.5C 373.479,274.002 373.312,274.668 374,275.5C 385.397,288.934 398.897,299.601 414.5,307.5C 406.328,316.024 400.661,326.024 397.5,337.5C 361.131,342.984 324.797,342.817 288.5,337C 304.228,330.65 320.561,326.317 337.5,324C 359.43,321.228 381.43,319.228 403.5,318C 362.657,308.091 329.657,286.425 304.5,253C 310.95,253.019 317.283,254.019 323.5,256C 340.169,260.78 356.503,266.113 372.5,272C 347.927,242.784 338.261,209.284 343.5,171.5C 349.541,178.045 355.041,185.045 360,192.5C 370.252,209.335 380.252,226.335 390,243.5C 402.59,260.258 416.09,276.258 430.5,291.5C 433.53,290.47 435.53,288.47 436.5,285.5C 422.895,260.112 413.728,233.112 409,204.5C 406.618,189.661 407.285,174.995 411,160.5C 419.667,169.167 428.333,177.833 437,186.5C 444.805,195.473 451.638,205.14 457.5,215.5C 462.414,207.088 467.914,199.088 474,191.5C 483.581,181.85 493.248,172.184 503,162.5C 507.305,192.017 503.971,220.683 493,248.5C 488.049,261.069 482.549,273.403 476.5,285.5C 478.008,287.507 479.842,289.174 482,290.5C 500.34,271.454 517.007,251.12 532,229.5C 542.762,208.286 555.262,188.286 569.5,169.5C 575.064,190.485 573.897,211.152 566,231.5C 560.425,245.823 552.925,258.989 543.5,271C 556,266.383 568.666,261.717 581.5,257C 590.755,254.02 600.088,251.686 609.5,250C 582.263,283.954 547.263,305.121 504.5,313.5C 505.127,314.417 505.461,315.417 505.5,316.5 Z" data-index="4"></path></g>
<g><path style="opacity: 1; visibility: visible;" fill="#ffcfcf" d="M 469.5,281.5 C 465.515,278.363 461.348,275.363 457,272.5C 452.652,275.363 448.485,278.363 444.5,281.5C 442.039,258.471 446.373,236.804 457.5,216.5C 468.435,236.846 472.435,258.513 469.5,281.5 Z" data-index="5"></path></g>
<g><path style="opacity: 1; visibility: visible;" fill="#ffcccc" d="M 469.5,281.5 C 467.731,293.638 464.065,305.138 458.5,316C 458.833,316.5 459.167,317 459.5,317.5C 469.569,310.77 479.903,304.437 490.5,298.5C 494.033,301.199 497.033,304.366 499.5,308C 488.868,313.989 477.535,317.822 465.5,319.5C 463.545,318.677 461.545,318.51 459.5,319C 459.957,319.414 460.291,319.914 460.5,320.5C 458.156,321.551 456.489,323.218 455.5,325.5C 455.167,325.5 454.833,325.5 454.5,325.5C 453.833,325.5 453.167,325.5 452.5,325.5C 437.35,324.407 422.35,322.24 407.5,319C 411.888,317.893 416.388,317.393 421,317.5C 430.166,318.188 439.332,318.354 448.5,318C 436.545,316.403 425.212,312.903 414.5,307.5C 417.218,303.78 420.552,300.78 424.5,298.5C 431.675,301.92 438.675,305.586 445.5,309.5C 446.76,311.367 448.427,312.7 450.5,313.5C 451.458,314.962 452.624,316.295 454,317.5C 452.445,310.823 450.445,304.157 448,297.5C 446.512,292.216 445.345,286.883 444.5,281.5C 448.485,278.363 452.652,275.363 457,272.5C 461.348,275.363 465.515,278.363 469.5,281.5 Z" data-index="6"></path></g>
<g><path style="opacity: 1; visibility: visible;" fill="#ffcfcf" d="M 505.5,316.5 C 505.833,316.5 506.167,316.5 506.5,316.5C 509.943,321.051 512.61,326.051 514.5,331.5C 497.713,328.886 481.38,324.886 465.5,319.5C 477.535,317.822 488.868,313.989 499.5,308C 497.033,304.366 494.033,301.199 490.5,298.5C 479.903,304.437 469.569,310.77 459.5,317.5C 459.167,317 458.833,316.5 458.5,316C 464.065,305.138 467.731,293.638 469.5,281.5C 472.095,282.426 474.095,284.093 475.5,286.5C 471.263,294.974 467.096,303.307 463,311.5C 468.833,305 474.667,298.5 480.5,292C 481.5,291.333 482.5,291.333 483.5,292C 485.928,293.961 488.428,295.794 491,297.5C 507.617,288.775 524.451,280.441 541.5,272.5C 542.521,273.002 542.688,273.668 542,274.5C 530.259,288.579 516.426,300.079 500.5,309C 501.687,310.019 502.687,311.186 503.5,312.5C 498.37,314.413 493.037,315.579 487.5,316C 493.491,316.499 499.491,316.666 505.5,316.5 Z" data-index="7"></path></g>
<g><path style="opacity: 1; visibility: visible;" fill="#ffcfcf" d="M 445.5,309.5 C 438.675,305.586 431.675,301.92 424.5,298.5C 420.552,300.78 417.218,303.78 414.5,307.5C 398.897,299.601 385.397,288.934 374,275.5C 373.312,274.668 373.479,274.002 374.5,273.5C 391.321,280.827 407.821,288.827 424,297.5C 425.739,295.259 427.906,293.592 430.5,292.5C 435.894,297.89 440.894,303.556 445.5,309.5 Z" data-index="8"></path></g>
<g><path style="opacity: 1; visibility: visible;" fill="#ffcfcf" d="M 444.5,281.5 C 445.345,286.883 446.512,292.216 448,297.5C 450.445,304.157 452.445,310.823 454,317.5C 452.624,316.295 451.458,314.962 450.5,313.5C 451.239,313.631 451.906,313.464 452.5,313C 446.735,304.807 441.735,296.141 437.5,287C 439.381,284.622 441.714,282.789 444.5,281.5 Z" data-index="9"></path></g>
<g><path style="opacity: 1; visibility: visible;" fill="#ffcfcf" d="M 414.5,307.5 C 425.212,312.903 436.545,316.403 448.5,318C 439.332,318.354 430.166,318.188 421,317.5C 416.388,317.393 411.888,317.893 407.5,319C 422.35,322.24 437.35,324.407 452.5,325.5C 434.658,331.207 416.324,335.207 397.5,337.5C 400.661,326.024 406.328,316.024 414.5,307.5 Z" data-index="10"></path></g>
<g><path style="opacity: 1; visibility: visible;" fill="#ffd6d6" d="M 506.5,316.5 C 541.297,316.981 575.63,321.148 609.5,329C 614.621,330.263 619.621,331.929 624.5,334C 587.713,339.045 551.046,338.211 514.5,331.5C 512.61,326.051 509.943,321.051 506.5,316.5 Z" data-index="11"></path></g>
<g><path style="opacity: 1; visibility: visible;" fill="#ffd6d6" d="M 465.5,319.5 C 481.38,324.886 497.713,328.886 514.5,331.5C 518.114,341.292 518.948,351.292 517,361.5C 516.586,361.957 516.086,362.291 515.5,362.5C 496.268,351.385 478.268,338.552 461.5,324C 460.542,325.228 458.542,325.728 455.5,325.5C 456.489,323.218 458.156,321.551 460.5,320.5C 460.291,319.914 459.957,319.414 459.5,319C 461.545,318.51 463.545,318.677 465.5,319.5 Z" data-index="12"></path></g>
<g><path style="opacity: 1; visibility: visible;" fill="#ffd6d6" d="M 452.5,325.5 C 453.167,325.5 453.833,325.5 454.5,325.5C 437.28,340.784 418.613,354.118 398.5,365.5C 395.079,356.295 394.746,346.962 397.5,337.5C 416.324,335.207 434.658,331.207 452.5,325.5 Z" data-index="13"></path></g>
</svg>