<svg width="100" height="100" viewBox="0 0 24 24" fill="none" xmlns="http://www.w3.org/2000/svg">
  <path d="M12 2C10.3431 2 9 3.34315 9 5V6H8C6.34315 6 5 7.34315 5 9V11H4C2.89543 11 2 11.8954 2 13V15C2 16.1046 2.89543 17 4 17H5V18C5 19.6569 6.34315 21 8 21H9V22C9 23.1046 9.89543 24 11 24H13C14.1046 24 15 23.1046 15 22V21H16C17.6569 21 19 19.6569 19 18V17H20C21.1046 17 22 16.1046 22 15V13C22 11.8954 21.1046 11 20 11H19V9C19 7.34315 17.6569 6 16 6H15V5C15 3.34315 13.6569 2 12 2Z" stroke="#00FFFF" stroke-width="2" stroke-linecap="round" stroke-linejoin="round"/>
</svg>
