<svg xmlns="http://www.w3.org/2000/svg" width="104" height="104" viewBox="0 0 104 104" xml:space="preserve"><path fill="#51F200" d="M98 66h-7.121c0-28.161-15.77-37.674-24.879-40.819v-5.848a6 6 0 0 0-6-6H42.666a6 6 0 0 0-6 6v6.164c-9.207 3.447-24 13.227-24 40.503H6a6 6 0 0 0-6 6v12.667a6 6 0 0 0 6 6h17.334c3.313 0 6-2.688 6-6V72c0-3.313-2.688-6-6-6h-6.668c0-23.872 11.848-32.916 20-36.319V32c0 3.313 2.688 6 6 6h6.668v28h-6.668a6 6 0 0 0-6 6v12.667c0 3.312 2.688 6 6 6H60a6 6 0 0 0 6-6V72a6 6 0 0 0-6-6h-6.666V38H60a6 6 0 0 0 6-6v-2.673C74.148 32.438 86.879 41.255 86.879 66h-6.213c-3.312 0-6 2.687-6 6v12.667c0 3.312 2.688 6 6 6H98a6 6 0 0 0 6-6V72a6 6 0 0 0-6-6"/></svg>
