<svg xmlns="http://www.w3.org/2000/svg" width="16" height="16" viewBox="0 0 16 16">
        <path fill="#3572A5" d="M7.8 1.5c-4 0-3.7 1.7-3.7 1.7l.1 1.8h3.8v.5H2.8S1 5.5 1 9.2c0 3.7 1.6 3.5 1.6 3.5h1v-1.7s0-2 2-2h3.4s1.9 0 1.9-1.8V4.3s.3-2.8-3-2.8zm-2.1 1.6c.4 0 .7.3.7.7 0 .4-.3.7-.7.7-.4 0-.7-.3-.7-.7 0-.4.3-.7.7-.7z"/>
        <path fill="#FFD43B" d="M8.2 14.5c4 0 3.7-1.7 3.7-1.7l-.1-1.8H8.1v-.5h5.2s1.8 0 1.8-3.8c0-3.7-1.6-3.5-1.6-3.5h-1v1.7s0 2-2 2H7.1s-1.9 0-1.9 1.8v2.9s-.3 2.8 3 2.8zm2.1-1.6c-.4 0-.7-.3-.7-.7 0-.4.3-.7.7-.7.4 0 .7.3.7.7 0 .4-.3.7-.7.7z"/>
    </svg>