<svg width="100" height="100" viewBox="0 0 24 24" fill="none" xmlns="http://www.w3.org/2000/svg">
  <path d="M12 15.5C13.933 15.5 15.5 13.933 15.5 12C15.5 10.067 13.933 8.5 12 8.5C10.067 8.5 8.5 10.067 8.5 12C8.5 13.933 10.067 15.5 12 15.5Z" stroke="#FFAA00" stroke-width="2" stroke-linecap="round" stroke-linejoin="round"/>
  <path d="M19.4 15C19.7314 14.1085 19.9494 13.1386 20 12C19.9494 10.8614 19.7314 9.89155 19.4 9M4.6 9C4.26863 9.89155 4.05065 10.8614 4 12C4.05065 13.1386 4.26863 14.1085 4.6 15M16 2L18 4M6 20L8 22M22 12L20 14M2 12L4 10M12 22L14 20M10 4L12 2" stroke="#FFAA00" stroke-width="2" stroke-linecap="round" stroke-linejoin="round"/>
</svg>
